<?xml version="1.0" encoding="utf-8"?>
<!-- Generator: Adobe Illustrator 16.0.0, SVG Export Plug-In . SVG Version: 6.00 Build 0)  -->
<!DOCTYPE svg PUBLIC "-//W3C//DTD SVG 1.1//EN" "http://www.w3.org/Graphics/SVG/1.1/DTD/svg11.dtd">
<svg version="1.1" id="Layer_1" xmlns="http://www.w3.org/2000/svg" xmlns:xlink="http://www.w3.org/1999/xlink" x="0px" y="0px"
	 width="906.137px" height="906.197px" viewBox="0 0 906.137 906.197" enable-background="new 0 0 906.137 906.197"
	 xml:space="preserve">
<path fill="#252525" d="M883.912,812.866l-70.99,71.226c-14.354,14.232-34.146,22.105-54.051,22.104
	c-19.791,0.001-39.695-7.871-53.932-22.105L453.063,632.219L201.19,884.092c-14.235,14.233-34.14,22.105-53.931,22.105
	c-19.905,0-39.695-7.873-54.05-22.106l-70.987-71.225C7.868,798.632,0.001,778.841,0.001,758.933s7.867-39.699,22.221-53.935
	L273.98,453.127L22.221,201.31C7.866,187.016,0,167.165,0,147.32c0-19.852,7.866-39.701,22.221-53.991l70.987-71.107
	C107.563,7.927,127.354,0,147.258,0c19.791,0,39.696,7.926,53.931,22.222l251.874,251.813L704.941,22.222
	C719.176,7.927,739.082,0,758.873,0c19.904,0,39.695,7.926,54.051,22.222l70.99,71.107c14.355,14.29,22.223,34.14,22.223,53.991
	c-0.002,19.845-7.867,39.695-22.223,53.99L632.156,453.128l251.758,251.871c14.354,14.234,22.221,34.024,22.221,53.938
	C906.133,778.84,898.268,798.631,883.912,812.866z"/>
</svg>
